<svg width="32" height="29" viewBox="0 0 32 29" fill="none" xmlns="http://www.w3.org/2000/svg">
<g clip-path="url(#clip0_47_674)">
<path d="M21.0589 11.052H7.06826C6.73311 11.052 6.53545 11.2883 6.62139 11.6363L8.64092 18.5844C8.68389 18.7649 8.86436 18.8981 9.0878 18.8981H19.0866C19.3101 18.8981 19.4905 18.7649 19.5335 18.5844L21.5058 11.6363C21.5831 11.4086 21.4628 11.052 21.0589 11.052ZM18.773 17.9571H9.44444L9.04053 16.5692H19.1769L18.773 17.9571ZM19.4003 15.6668H8.75694L8.35733 14.2789H19.8042L19.4003 15.6668ZM20.0706 13.3379H8.09951L7.69561 11.95H20.4788L20.0706 13.3379Z" fill="#222222" stroke="#222222" stroke-width="0.2"/>
<path d="M4.60195 8.04414C4.55898 7.8207 4.37852 7.6875 4.15508 7.6875H0.472656V8.58555H3.78984L6.84062 20.8703C6.88359 21.0938 7.06406 21.227 7.2875 21.227H19.1254V20.2859H7.64844L4.60195 8.04414Z" fill="#222222" stroke="#222222" stroke-width="0.2"/>
<path d="M17.7419 22.6191H7.29187V23.5172H17.7419V22.6191Z" fill="#222222" stroke="#222222" stroke-width="0.2"/>
<path d="M17.2005 24.7246C16.2122 24.7246 15.4087 25.5324 15.4087 26.5164C15.4087 27.5047 16.2165 28.3082 17.2005 28.3082C18.1845 28.3082 18.9923 27.5004 18.9923 26.5164C18.9966 25.5324 18.1888 24.7246 17.2005 24.7246ZM17.2005 27.3715C16.7536 27.3715 16.3497 26.9676 16.3497 26.5207C16.3497 26.0738 16.7063 25.6699 17.2005 25.6699C17.6946 25.6699 18.0513 26.0738 18.0513 26.5207C18.0556 26.9676 17.6517 27.3715 17.2005 27.3715Z" fill="#222222" stroke="#222222" stroke-width="0.2"/>
<path d="M8.50359 24.7246C7.51531 24.7246 6.71179 25.5324 6.71179 26.5164C6.71179 27.5047 7.5196 28.3082 8.50359 28.3082C9.48757 28.3082 10.2954 27.5004 10.2954 26.5164C10.2954 25.5324 9.48757 24.7246 8.50359 24.7246ZM8.50359 27.3715C8.05671 27.3715 7.65281 26.9676 7.65281 26.5207C7.65281 26.0738 8.00945 25.6699 8.50359 25.6699C8.95046 25.6699 9.35437 26.0738 9.35437 26.5207C9.35437 26.9676 8.95046 27.3715 8.50359 27.3715Z" fill="#222222" stroke="#222222" stroke-width="0.2"/>
</g>
<circle cx="24" cy="8" r="8" fill="#FF9B04"/>
<path d="M26.2735 12H21.6635V11.1L24.1035 8.61C24.6968 8.01667 24.9935 7.50333 24.9935 7.07C24.9935 6.73667 24.8935 6.47333 24.6935 6.28C24.4935 6.08667 24.2335 5.99 23.9135 5.99C23.3268 5.99 22.8935 6.28 22.6135 6.86L21.6435 6.29C21.8568 5.83 22.1635 5.48 22.5635 5.24C22.9635 4.99333 23.4102 4.87 23.9035 4.87C24.5235 4.87 25.0502 5.06333 25.4835 5.45C25.9235 5.84333 26.1435 6.37 26.1435 7.03C26.1435 7.73667 25.7468 8.49667 24.9535 9.31L23.3735 10.89H26.2735V12Z" fill="#222222"/>
<defs>
<clipPath id="clip0_47_674">
<rect width="22" height="22" fill="white" transform="translate(0 7)"/>
</clipPath>
</defs>
</svg>
