<svg width="18" height="18" viewBox="0 0 18 18" fill="none" xmlns="http://www.w3.org/2000/svg">
<path d="M14.0868 2.6979C13.9182 2.71016 13.7528 2.7497 13.5969 2.81498H13.5948C13.4452 2.8743 12.7338 3.17355 11.6523 3.62715L7.77678 5.25938C4.99585 6.43013 2.26218 7.58303 2.26218 7.58303L2.29473 7.57043C2.29473 7.57043 2.10625 7.63238 1.90938 7.7673C1.78775 7.8447 1.68309 7.94597 1.60173 8.06498C1.50513 8.20673 1.42743 8.42355 1.4563 8.64773C1.50355 9.02678 1.74925 9.2541 1.92565 9.37958C2.10415 9.50663 2.27425 9.56595 2.27425 9.56595H2.27845L4.84203 10.4296C4.957 10.7987 5.62323 12.989 5.78335 13.4935C5.87785 13.7948 5.96973 13.9833 6.0847 14.1272C6.14035 14.2007 6.20545 14.2621 6.28368 14.3114C6.32434 14.3351 6.3677 14.3538 6.41283 14.3671L6.38658 14.3608C6.39445 14.3629 6.40075 14.3692 6.40653 14.3713C6.42753 14.3771 6.4417 14.3792 6.46848 14.3834C6.8743 14.5062 7.20033 14.2542 7.20033 14.2542L7.2187 14.2395L8.73228 12.8614L11.2691 14.8076L11.3268 14.8322C11.8555 15.0643 12.391 14.9351 12.674 14.7073C12.9591 14.4779 13.0698 14.1844 13.0698 14.1844L13.0882 14.1371L15.0486 4.0944C15.1042 3.8466 15.1184 3.61455 15.057 3.38933C14.9936 3.16139 14.8474 2.96534 14.6469 2.83965C14.4786 2.73734 14.2835 2.68795 14.0868 2.6979ZM14.0337 3.77415C14.0316 3.80723 14.0379 3.80355 14.0232 3.86708V3.87285L12.0813 13.8111C12.0729 13.8253 12.0587 13.8563 12.0198 13.8872C11.9789 13.9198 11.9463 13.9403 11.7757 13.8725L8.67295 11.4938L6.7987 13.2021L7.19245 10.6874L12.2619 5.96235C12.4708 5.7681 12.401 5.72715 12.401 5.72715C12.4157 5.4888 12.0855 5.65733 12.0855 5.65733L5.69305 9.6174L5.69095 9.6069L2.62705 8.57528V8.57318L2.61918 8.5716C2.62455 8.56982 2.62981 8.56771 2.63493 8.5653L2.65173 8.5569L2.668 8.55113C2.668 8.55113 5.40378 7.39823 8.1847 6.22748C9.577 5.64105 10.9798 5.05043 12.0587 4.59473C13.1376 4.14165 13.935 3.80933 13.9802 3.79148C14.0232 3.77468 14.0028 3.77468 14.0337 3.77468V3.77415Z" fill="#222222"/>
</svg>
