<svg width="16" height="16" viewBox="0 0 16 16" fill="none" xmlns="http://www.w3.org/2000/svg">
<path d="M12.6531 3.3205C12.048 2.70929 11.3273 2.22468 10.5329 1.89493C9.73861 1.56518 8.88656 1.3969 8.0265 1.3999C4.42291 1.3999 1.48591 4.3369 1.48591 7.9405C1.48591 9.0955 1.78951 10.2175 2.35711 11.2075L1.43311 14.5999L4.89811 13.6891C5.85511 14.2105 6.9309 14.4877 8.0265 14.4877C11.6301 14.4877 14.5671 11.5507 14.5671 7.9471C14.5671 6.1981 13.8873 4.5547 12.6531 3.3205ZM8.0265 13.3789C7.04971 13.3789 6.09271 13.1149 5.25451 12.6199L5.05651 12.5011L2.99731 13.0423L3.54511 11.0359L3.41311 10.8313C2.87042 9.9647 2.58226 8.963 2.58151 7.9405C2.58151 4.9441 5.0235 2.5021 8.0199 2.5021C9.4719 2.5021 10.8381 3.0697 11.8611 4.0993C12.3676 4.60351 12.7691 5.20325 13.0421 5.86376C13.3151 6.52426 13.4544 7.23239 13.4517 7.9471C13.4649 10.9435 11.0229 13.3789 8.0265 13.3789ZM11.0097 9.3133C10.8447 9.2341 10.0395 8.8381 9.89431 8.7787C9.74251 8.7259 9.63691 8.6995 9.5247 8.8579C9.41251 9.0229 9.1023 9.3925 9.0099 9.4981C8.9175 9.6103 8.8185 9.6235 8.6535 9.5377C8.4885 9.4585 7.96051 9.2803 7.34011 8.7259C6.85171 8.2903 6.52831 7.7557 6.42931 7.5907C6.33691 7.4257 6.4161 7.3399 6.5019 7.2541C6.5745 7.1815 6.66691 7.0627 6.74611 6.9703C6.82531 6.8779 6.85831 6.8053 6.91111 6.6997C6.96391 6.5875 6.93751 6.4951 6.8979 6.4159C6.8583 6.3367 6.52831 5.5315 6.39631 5.2015C6.26431 4.8847 6.12571 4.9243 6.02671 4.9177H5.70991C5.5977 4.9177 5.42611 4.9573 5.27431 5.1223C5.12911 5.2873 4.70671 5.6833 4.70671 6.4885C4.70671 7.2937 5.29411 8.0725 5.37331 8.1781C5.45251 8.2903 6.52831 9.9403 8.1651 10.6465C8.5545 10.8181 8.8581 10.9171 9.09571 10.9897C9.4851 11.1151 9.84151 11.0953 10.1253 11.0557C10.4421 11.0095 11.0955 10.6597 11.2275 10.2769C11.3661 9.8941 11.3661 9.5707 11.3199 9.4981C11.2737 9.4255 11.1747 9.3925 11.0097 9.3133Z" fill="#222222"/>
</svg>
